<svg id="visual" viewBox="0 0 900 600" width="900" height="600" xmlns="http://www.w3.org/2000/svg" xmlns:xlink="http://www.w3.org/1999/xlink" version="1.1"><path d="M0 532L15 529C30 526 60 520 90 512.5C120 505 150 496 180 497.7C210 499.3 240 511.7 270 516.5C300 521.3 330 518.7 360 511.7C390 504.7 420 493.3 450 504.7C480 516 510 550 540 554.2C570 558.3 600 532.7 630 526C660 519.3 690 531.7 720 535.3C750 539 780 534 810 523.8C840 513.7 870 498.3 885 490.7L900 483L900 601L885 601C870 601 840 601 810 601C780 601 750 601 720 601C690 601 660 601 630 601C600 601 570 601 540 601C510 601 480 601 450 601C420 601 390 601 360 601C330 601 300 601 270 601C240 601 210 601 180 601C150 601 120 601 90 601C60 601 30 601 15 601L0 601Z" fill="#F5F5DC" stroke-linecap="round" stroke-linejoin="miter"></path></svg>